<?xml version="1.0" encoding="utf-8"?>

<!DOCTYPE svg PUBLIC "-//W3C//DTD SVG 1.1//EN" "http://www.w3.org/Graphics/SVG/1.1/DTD/svg11.dtd">
<!-- Uploaded to: SVG Repo, www.svgrepo.com, Generator: SVG Repo Mixer Tools -->
<svg version="1.1" id="_x32_" xmlns="http://www.w3.org/2000/svg" xmlns:xlink="http://www.w3.org/1999/xlink" 
	 viewBox="0 0 512 512"  xml:space="preserve">
<style type="text/css">
	.st0{fill:#000000;}
</style>
<g>
	<path class="st0" d="M282.45,277.146c0-4.477-0.994-8.892-2.884-12.936c11.283,4.962,18.097,12.474,24.607,20.396l1.67,2.018
		c-0.483,1.412-1.59,5.023-4.386,14.675l-1.142,3.976l3.006-2.838c2.481-2.345,4.639-4.636,6.574-6.677l3.248-3.369
		c3.931-3.991,5.418-5.607,5.418-6.798c0-1.199-1.487-2.815-5.426-6.813l-3.422-3.566c-9.75-10.32-24.466-25.927-58.178-25.927
		c-33.7,0-48.42,15.6-58.159,25.919l-3.445,3.574c-3.927,3.998-5.422,5.614-5.422,6.813c0,1.191,1.488,2.807,5.414,6.798
		l3.225,3.331c2.462,2.611,5.254,5.562,8.631,8.559l1.776-1.313c-4.959-11.07-6.722-14.978-7.41-16.412l2.064-2.496
		c2.998-3.657,6.108-7.436,9.807-10.934c6.234-5.448,11.382-8.71,13.78-8.71l0.941,0.478c-1.711,3.893-2.584,8.005-2.584,12.254
		c0,17.178,13.973,31.148,31.144,31.148C268.478,308.294,282.45,294.325,282.45,277.146z M240.513,281.426
		c-5.983,0-10.843-4.864-10.843-10.85c0-5.979,4.86-10.843,10.843-10.843c5.987,0,10.847,4.864,10.847,10.843
		C251.36,276.562,246.5,281.426,240.513,281.426z"/>
	<path class="st0" d="M198.516,257.122c4.993-5.152,12.762-9.697,22.402-12.914c9.632-3.225,21.117-5.114,33.446-5.114
		c12.33,0,23.806,1.89,33.447,5.114c9.64,3.217,17.398,7.762,22.395,12.907c1.555,1.593,4.332,1.821,6.206,0.508
		c1.874-1.306,2.14-3.642,0.6-5.235c-6.214-6.374-15.221-11.511-25.958-15.108c-10.759-3.597-23.298-5.63-36.69-5.63
		c-13.404,0-25.934,2.033-36.69,5.63c-10.74,3.596-19.747,8.734-25.961,15.108c-1.544,1.593-1.271,3.93,0.599,5.235
		C194.194,258.936,196.972,258.708,198.516,257.122z"/>
	<rect x="247.001" class="st0" width="17.998" height="58.455"/>
	<rect x="247.001" y="453.544" class="st0" width="17.998" height="58.456"/>
	
		<rect x="66.418" y="104.65" transform="matrix(0.7072 0.707 -0.707 0.7072 108.3605 -34.3463)" class="st0" width="58.455" height="17.995"/>
	
		<rect x="387.123" y="425.354" transform="matrix(-0.7071 -0.7071 0.7071 -0.7071 403.6266 1035.8904)" class="st0" width="58.46" height="17.995"/>
	
		<rect x="0.008" y="265.002" transform="matrix(-1 1.300891e-004 -1.300891e-004 -1 58.4905 547.9986)" class="st0" width="58.439" height="17.998"/>
	<rect x="453.552" y="264.998" class="st0" width="58.44" height="17.998"/>
	
		<rect x="86.652" y="405.124" transform="matrix(-0.7071 -0.7071 0.7071 -0.7071 -143.8488 809.1187)" class="st0" width="17.995" height="58.455"/>
	
		<rect x="407.355" y="84.414" transform="matrix(-0.7071 -0.7071 0.7071 -0.7071 630.4012 488.4079)" class="st0" width="17.996" height="58.46"/>
	<path class="st0" d="M100.794,375.179c1.863,3.088,5.266,5.008,8.87,5.008h292.679c3.604,0,6.996-1.92,8.862-5.008
		c1.897-3.126,2.003-6.935,0.296-10.175L265.154,86.954c-1.783-3.415-5.296-5.531-9.154-5.531s-7.375,2.116-9.158,5.531
		l-146.344,278.05C98.791,368.244,98.897,372.053,100.794,375.179z M133.573,346.611c0.159-0.288,0.466-0.478,0.8-0.478h169.694
		v-3.839h-166.73c-0.319,0-0.608-0.152-0.775-0.425c-0.159-0.274-0.166-0.608-0.026-0.888l8.745-16.602
		c0.159-0.288,0.467-0.478,0.8-0.478h58.077v-3.84H149.04c-0.315,0-0.607-0.159-0.774-0.432c-0.155-0.266-0.167-0.608-0.026-0.888
		l10.926-20.752c0.122-0.228,0.35-0.402,0.608-0.455c0.068-0.022,0.129-0.022,0.19-0.022c0.204,0,0.398,0.06,0.554,0.19
		c3.922,3.042,9.545,7.375,13.13,10.076l2.295-3.066c-2.815-2.116-13.87-10.645-13.87-10.645c-0.342-0.258-0.448-0.744-0.243-1.13
		l31.25-59.009c18.988-8.529,70.125-27.688,112.851-9.204c-0.824-0.668-1.722-1.237-2.572-1.874c0.034,0.022,0.088,0.03,0.122,0.038
		c-0.088-0.06-0.201-0.099-0.289-0.159c-26.894-19.63-67.378-18.969-101.404-5.729l20.361-38.675c0.159-0.288,0.466-0.478,0.8-0.478
		h44.536v-3.839h-41.576c-0.316,0-0.604-0.159-0.77-0.433c-0.16-0.273-0.167-0.607-0.027-0.887l6.67-12.664
		c0.156-0.288,0.467-0.471,0.801-0.471h37.714v-3.831h-34.756c-0.315,0-0.607-0.159-0.774-0.433
		c-0.155-0.274-0.167-0.607-0.026-0.888l20.46-38.879c0.159-0.288,0.467-0.47,0.8-0.47c0.334,0,0.641,0.182,0.797,0.47
		l39.714,75.467c0.141,0.281,0.133,0.615-0.026,0.888c-0.167,0.273-0.455,0.425-0.774,0.425h-40.51v3.831h43.473
		c0.334,0,0.641,0.19,0.8,0.479l64.279,122.13c0.144,0.28,0.137,0.622-0.023,0.888c-0.167,0.273-0.455,0.432-0.774,0.432H255.199
		v3.84h110.715c0.334,0,0.645,0.19,0.804,0.478l8.741,16.602c0.145,0.281,0.137,0.615-0.022,0.888
		c-0.167,0.272-0.463,0.425-0.774,0.425h-49.107v3.839h52.066c0.334,0,0.645,0.19,0.797,0.478l6.078,11.541
		c0.137,0.281,0.129,0.615-0.03,0.888c-0.167,0.273-0.455,0.425-0.774,0.425H128.303c-0.319,0-0.608-0.152-0.774-0.425
		c-0.16-0.273-0.167-0.607-0.027-0.888L133.573,346.611z"/>
</g>
</svg>